<?xml version="1.0" encoding="utf-8"?>
<!-- Generator: Adobe Illustrator 21.1.0, SVG Export Plug-In . SVG Version: 6.00 Build 0)  -->
<svg version="1.1" id="Layer_1" xmlns="http://www.w3.org/2000/svg" xmlns:xlink="http://www.w3.org/1999/xlink" x="0px" y="0px"
	 viewBox="0 0 2000 2000" style="enable-background:new 0 0 2000 2000;" xml:space="preserve">
<g>
	<path d="M197.5,1133.3c106.4,430.3,545.3,673,892.9,601.5c-36-139.2-112.5-268.8-215.9-371.3
		C703.1,1193.6,442.6,1088.8,197.5,1133.3z"/>
	<path d="M1802.5,1125.6c-100.6,327.5-327.1,516.3-621.3,594.8c-32.2-111.4-77.2-203.8-130.4-284
		C1234.8,1214,1491.1,1102.6,1802.5,1125.6z"/>
	<path d="M343,707.9c-29,117.8-34.6,225.2-14.8,321.3c110.9,8.5,222.9,32.1,336.6,79.6C724,990.6,809.2,888.8,913.2,799
		C728.3,698.8,538,672.1,343,707.9z"/>
	<path d="M748.1,1151.6c103.7,63.9,183.4,135.1,248.1,210.7c186.2-216.1,415.9-316.5,667.9-333.3c20.5-104,13.2-210.1-15.1-317.8
		C1349.7,627.6,903.4,797.3,748.1,1151.6z"/>
	<path d="M996.6,741.8C849.2,650,686,603.1,508.1,597.5c298.3-489.8,734.7-428.8,970.4,2C1300.6,605,1143.9,650,996.6,741.8z"/>
</g>
</svg>
